<?xml version="1.0" encoding="UTF-8"?>
<svg width="114px" height="114px" viewBox="0 0 114 114" version="1.1" xmlns="http://www.w3.org/2000/svg" xmlns:xlink="http://www.w3.org/1999/xlink">
    <!-- Generator: Sketch 47.1 (45422) - http://www.bohemiancoding.com/sketch -->
    <title>Flippa</title>
    <desc>Created with Sketch.</desc>
    <defs></defs>
    <g id="Page-1" stroke="none" stroke-width="1" fill="none" fill-rule="evenodd">
        <g id="Flippa">
            <circle id="Oval-3" fill="#FFFFFF" cx="57" cy="58" r="48"></circle>
            <path d="M26.7272967,105.305516 L3,111 L10.5537187,90.0492861 C3.90871905,80.7274133 0,69.3201718 0,57 C0,25.5197693 25.5197693,0 57,0 C88.4802307,0 114,25.5197693 114,57 C114,88.4802307 88.4802307,114 57,114 C45.8774735,114 35.4990121,110.814278 26.7272967,105.305516 Z M73.59806,26.7559859 C72.2654385,23.7628689 68.7377376,22.4643519 65.8365619,23.7560385 L36.2094035,36.9468993 C32.3411692,38.6691482 30.5469467,43.1568955 32.2222423,46.9196711 L52.1354156,91.6453907 C53.5822619,94.8950606 57.6139201,96.3790801 60.9546679,94.8916833 C64.4712445,93.3260025 66.066109,89.3368938 64.6192628,86.0872239 L56.5473837,67.9574867 L80.1084473,57.4674253 C83.0096231,56.1757387 84.4051295,52.6852685 83.1105829,49.7776691 C81.7779613,46.7845521 78.2502604,45.4860351 75.3490847,46.7777218 L51.7880211,57.2677832 L46.41946,45.2097976 L70.5959245,34.4457421 C73.4971003,33.1540554 74.8926067,29.6635852 73.59806,26.7559859 Z" id="Combined-Shape" fill="#39A1E1"></path>
        </g>
    </g>
</svg>